<?xml version="1.0" encoding="UTF-8"?>
<svg version="1.1" xmlns="http://www.w3.org/2000/svg" width="772" height="746">
<path d="M0 0 C254.76 0 509.52 0 772 0 C772 246.18 772 492.36 772 746 C517.24 746 262.48 746 0 746 C0 499.82 0 253.64 0 0 Z " fill="#FEFEFE" transform="translate(0,0)"/>
<path d="M0 0 C0.70753418 0.14163574 1.41506836 0.28327148 2.14404297 0.42919922 C18.83673307 3.78852422 35.28007384 8.41759819 51 15 C52.19520264 15.4942749 52.19520264 15.4942749 53.41455078 15.99853516 C75.16037717 25.03324337 95.76293911 35.36699869 115 49 C116.010625 49.70769531 117.02125 50.41539063 118.0625 51.14453125 C120.74124868 53.05625451 123.37644871 55.01327003 126 57 C126.51949219 57.38945801 127.03898437 57.77891602 127.57421875 58.18017578 C137.31367197 65.51030622 146.25524901 73.51602687 155 82 C155.68449219 82.66257812 156.36898438 83.32515625 157.07421875 84.0078125 C165.25389978 91.96070016 173.04454223 99.94081209 180 109 C180.79535156 110.00160156 181.59070313 111.00320312 182.41015625 112.03515625 C188.74290526 120.05106062 194.50837819 128.38859795 200 137 C200.36947754 137.57911133 200.73895508 138.15822266 201.11962891 138.75488281 C212.94504365 157.47801366 222.54304155 177.15913077 230 198 C230.32339355 198.89992676 230.64678711 199.79985352 230.97998047 200.72705078 C233.12969546 206.77553203 235.12603479 212.86064818 237 219 C237.34756348 220.12680176 237.34756348 220.12680176 237.70214844 221.27636719 C242.93760722 238.72020856 244.71964327 256.98743964 247 275 C247.09178528 275.66994492 247.18357056 276.33988983 247.27813721 277.03013611 C248.21720654 284.03946773 248.24219847 291.00262291 248.25 298.0625 C248.25133942 298.77954102 248.25267883 299.49658203 248.25405884 300.23535156 C248.24552943 321.53417737 246.69060338 343.19054366 242 364 C241.67588135 365.46010498 241.67588135 365.46010498 241.34521484 366.94970703 C236.07132987 390.28360207 229.56968647 413.93519154 218 435 C217.04482057 436.91956788 216.11170274 438.84908731 215.17773438 440.77905273 C204.98800046 461.70368137 192.17505604 481.34415219 177 499 C176.11452683 500.06788536 175.2304972 501.13696876 174.34765625 502.20703125 C166.44923237 511.69698889 157.83513258 520.38422709 149 529 C144.22014297 525.97690513 140.04094623 522.5593215 135.8125 518.8125 C130.53436949 514.18525713 125.19704736 509.66110958 119.7421875 505.2421875 C116.62999959 502.69746405 113.56270126 500.10385619 110.5 497.5 C106.55353876 494.14547904 102.58357765 490.82778038 98.5625 487.5625 C93.14429421 483.15086945 87.8472915 478.60676358 82.55078125 474.05078125 C75.28968997 467.80572679 67.99446571 461.6036885 60.5625 455.5625 C55.69950576 451.60556582 50.94299797 447.53564058 46.19384766 443.44384766 C41.77968234 439.64836633 37.29666802 435.94722087 32.77734375 432.27734375 C29.09240857 429.25580056 25.46431679 426.16964049 21.83349609 423.08349609 C18.44026525 420.20442157 15.0172328 417.36788508 11.5625 414.5625 C6.69791376 410.60427044 1.93937822 406.53350939 -2.81054688 402.43945312 C-6.31216351 399.42768013 -9.84777593 396.46948309 -13.4375 393.5625 C-17.87239526 389.96363802 -22.19564251 386.25264112 -26.5 382.5 C-31.67930172 377.98522716 -36.91835614 373.56762247 -42.2578125 369.2421875 C-45.37000041 366.69746405 -48.43729874 364.10385619 -51.5 361.5 C-55.44646124 358.14547904 -59.41642235 354.82778038 -63.4375 351.5625 C-68.29604957 347.60918237 -73.0486409 343.54345748 -77.79296875 339.45483398 C-82.32944779 335.55348699 -86.93680202 331.75278682 -91.578125 327.9765625 C-94.77101123 325.37075536 -97.91951893 322.73820539 -101 320 C-101 319.67 -101 319.34 -101 319 C-100.17523509 318.99853344 -99.35047018 318.99706688 -98.50071239 318.99555588 C-78.40150762 318.95845051 -58.30247097 318.89938635 -38.20340252 318.81609726 C-28.48349938 318.77634425 -18.76367676 318.74393279 -9.04370117 318.72900391 C-0.56847903 318.715968 7.90656564 318.68895392 16.38168782 318.64538693 C20.86625407 318.62281567 25.35060179 318.60708671 29.83522987 318.60811615 C34.06328285 318.60886534 38.29085356 318.5908116 42.51878166 318.55883217 C44.06380638 318.55036965 45.60888543 318.54855825 47.15392303 318.55419731 C61.08733373 318.59824597 71.29908607 316.02051071 81.6484375 306.48046875 C89.05189478 298.75757295 91.72033262 289.25492564 91.5234375 278.80102539 C90.95027318 267.78220678 85.70561381 259.36910576 77.9375 251.8125 C67.80593121 243.89919319 56.19656102 243.26839553 43.91870117 243.34057617 C42.24191606 243.33210474 40.56514079 243.32145234 38.88838196 243.30880737 C34.37675946 243.28086689 29.86561573 243.28309582 25.3539331 243.29110122 C20.62401303 243.29424366 15.89424087 243.26914134 11.16438293 243.24714661 C2.22579846 243.20981491 -6.71263392 243.19756507 -15.65128869 243.1945222 C-25.83526607 243.18981953 -36.0190922 243.15685755 -46.20300257 243.12162435 C-67.13535516 243.04983261 -88.06752619 243.01692519 -109 243 C-109 223.53 -109 204.06 -109 184 C-86.00670312 183.86413875 -63.01373527 183.75378953 -40.02013779 183.68912697 C-29.34189145 183.6582943 -18.66391369 183.61631821 -7.98583984 183.54736328 C1.32988581 183.48723497 10.64541679 183.44877408 19.96133113 183.43546903 C24.88624243 183.42770141 29.81059719 183.40967146 34.73532867 183.36561966 C74.54456348 183.02357883 74.54456348 183.02357883 90 190 C90.78603355 190.34332996 91.57206711 190.68665993 92.38191986 191.04039383 C116.06734937 201.44002074 134.87424672 219.17032497 144.93896484 243.24609375 C148.68384573 252.91296775 151.28104228 262.62488704 152 273 C152.04914551 273.69641602 152.09829102 274.39283203 152.14892578 275.11035156 C153.80400895 302.33913913 143.89600872 327.36853059 126.1875 347.8125 C110.85833402 363.87956061 88.04513801 377.4902265 65.3515625 378.09765625 C64.12179687 378.08605469 62.89203125 378.07445312 61.625 378.0625 C60.37976563 378.05347656 59.13453125 378.04445313 57.8515625 378.03515625 C56.91054688 378.02355469 55.96953125 378.01195312 55 378 C55 378.66 55 379.32 55 380 C55.78697266 380.32291016 55.78697266 380.32291016 56.58984375 380.65234375 C59.94537655 382.52861411 62.69080698 385.03495649 65.5625 387.5625 C66.82206003 388.65723639 68.08248534 389.75097798 69.34375 390.84375 C70.27574219 391.65199219 70.27574219 391.65199219 71.2265625 392.4765625 C73.63774159 394.5478397 76.09467909 396.55921009 78.5625 398.5625 C82.60709285 401.84575772 86.59550201 405.18654026 90.5625 408.5625 C94.3308475 411.76743856 98.12246273 414.92687889 102 418 C105.87755691 421.07313667 109.66881705 424.23293507 113.4375 427.4375 C117.58523262 430.96072472 121.74170489 434.47140838 125.9375 437.9375 C126.77152344 438.62714844 127.60554688 439.31679688 128.46484375 440.02734375 C131.22876366 442.17800562 134.06544605 444.09061773 137 446 C139.60912855 441.97155384 142.20310629 437.93390058 144.78613281 433.88867188 C145.8421073 432.24566733 146.91563945 430.61397322 147.9921875 428.984375 C167.26274538 399.07902792 177.96487992 364.16107388 182 329 C182.0942627 328.18708496 182.18852539 327.37416992 182.28564453 326.53662109 C188.29891741 268.58760322 172.68101321 209.483697 139 162 C138.55317871 161.36239746 138.10635742 160.72479492 137.64599609 160.06787109 C101.60066624 108.9686892 45.11447746 74.52176484 -16 63 C-16.82532227 62.83628906 -17.65064453 62.67257813 -18.50097656 62.50390625 C-32.45207109 59.84026532 -46.47091392 59.69033991 -60.625 59.625 C-61.52503754 59.61705414 -62.42507507 59.60910828 -63.35238647 59.60092163 C-76.81253674 59.50971054 -89.73749204 60.72527849 -103 63 C-104.11761719 63.18804199 -105.23523438 63.37608398 -106.38671875 63.56982422 C-149.51650588 71.33106576 -190.9316189 92.12117527 -222.921875 122.09765625 C-225 124 -225 124 -227.5625 126.015625 C-229.74849759 127.79525124 -231.4568949 129.52762341 -233.25 131.6875 C-236.58341887 135.60444952 -240.16963629 139.17453699 -243.88671875 142.7265625 C-246.15461996 144.97340316 -246.15461996 144.97340316 -247.66192627 148.09951782 C-250 151 -250 151 -253.40423584 151.7215271 C-254.77693414 151.73885522 -256.15029432 151.72310079 -257.52246094 151.68115234 C-258.6498745 151.68246658 -258.6498745 151.68246658 -259.80006409 151.68380737 C-262.27923292 151.67963398 -264.75568031 151.63300048 -267.234375 151.5859375 C-268.95500205 151.57474431 -270.67564825 151.5662047 -272.39630127 151.56021118 C-276.92105069 151.53732211 -281.44464107 151.4783993 -285.96893311 151.4119873 C-290.58720215 151.3505658 -295.20565883 151.32319652 -299.82421875 151.29296875 C-308.88332124 151.22865526 -317.94156417 151.12627558 -327 151 C-325.3227923 146.63311533 -323.17423855 142.76294557 -320.6875 138.8125 C-320.25163574 138.11979004 -319.81577148 137.42708008 -319.36669922 136.71337891 C-310.61211438 122.98508597 -300.91215352 110.079611 -290 98 C-289.45762695 97.39591309 -288.91525391 96.79182617 -288.35644531 96.16943359 C-276.15447171 82.64024013 -263.17193097 70.21894987 -248.62597656 59.23193359 C-247.09230201 58.06993333 -245.57298733 56.88904981 -244.0546875 55.70703125 C-204.22698075 25.04946406 -157.23882859 6.54018919 -108 -2 C-106.90800293 -2.19062012 -105.81600586 -2.38124023 -104.69091797 -2.57763672 C-70.92858808 -8.15418908 -33.46104916 -6.95408585 0 0 Z " fill="#FD2E17" transform="translate(443,66)"/>
<path d="M0 0 C71.61 0 143.22 0 217 0 C217 93.39 217 186.78 217 283 C195.55 283 174.1 283 152 283 C152 209.08 152 135.16 152 59 C117.35 59 82.7 59 47 59 C46.67 61.97 46.34 64.94 46 68 C45.7073094 69.5362912 45.38949967 71.06842944 45.02734375 72.58984375 C41.8140349 87.79737025 41.58198062 102.82939251 41.5625 118.3125 C41.55668915 119.37951141 41.5508783 120.44652283 41.54489136 121.54586792 C41.47599603 139.92048064 43.16856792 157.45081613 47.875 175.25 C48.13692139 176.26102783 48.39884277 177.27205566 48.66870117 178.3137207 C49.42937378 181.21388607 50.2093383 184.10788404 51 187 C51.20351074 187.75265137 51.40702148 188.50530273 51.61669922 189.28076172 C61.74806154 226.08003383 82.6996474 259.63173884 109 287 C109.56734863 287.59458008 110.13469727 288.18916016 110.71923828 288.80175781 C119.24586588 297.69292798 128.0314231 305.75775578 138 313 C138.90540527 313.66394775 138.90540527 313.66394775 139.82910156 314.34130859 C156.32550862 326.34458123 174.07510843 336.37776238 193 344 C193.7439502 344.30244629 194.48790039 344.60489258 195.25439453 344.91650391 C233.99920044 360.46917166 278.62928629 366.16461632 320 359 C320.94520508 358.83870605 321.89041016 358.67741211 322.86425781 358.51123047 C353.0978345 353.20351595 386.1092098 343.99113189 411.2734375 325.6484375 C414 324 414 324 416.0703125 324.01171875 C418.64213491 325.32886666 420.66390478 326.94751847 422.875 328.8125 C423.84179688 329.62332031 424.80859375 330.43414063 425.8046875 331.26953125 C426.87087518 332.178418 427.93593584 333.08862809 429 334 C429.56106445 334.48001465 430.12212891 334.9600293 430.70019531 335.45458984 C433.06902836 337.48340853 435.43596441 339.51439834 437.79956055 341.54931641 C441.39368168 344.63983722 445.01714377 347.68733721 448.6875 350.6875 C449.55375 351.39648438 450.42 352.10546875 451.3125 352.8359375 C453.23345549 354.3827534 455.17322737 355.90631815 457.125 357.4140625 C458.135625 358.20554687 459.14625 358.99703125 460.1875 359.8125 C461.57001953 360.87404297 461.57001953 360.87404297 462.98046875 361.95703125 C465 364 465 364 465 368 C462.83596608 369.77727041 460.80009271 371.21977616 458.4375 372.6875 C457.7563916 373.12392822 457.0752832 373.56035645 456.37353516 374.01000977 C454.25878163 375.35627131 452.13110855 376.67981783 450 378 C449.08710205 378.57524414 449.08710205 378.57524414 448.15576172 379.16210938 C398.23386756 410.58051116 341.73986861 426.2616607 282.875 426.1875 C282.06018158 426.18722809 281.24536316 426.18695618 280.40585327 426.18667603 C268.16404419 426.16791475 256.12736176 425.79758389 244 424 C243.29633301 423.90348145 242.59266602 423.80696289 241.86767578 423.70751953 C214.46034718 419.90805149 187.07598741 412.76710309 162 401 C160.46529328 400.31766117 158.92891457 399.6390664 157.390625 398.96484375 C128.57282011 386.17326709 102.46343512 369.0342295 79 348 C78.20118408 347.29375488 78.20118408 347.29375488 77.38623047 346.57324219 C64.10228665 334.80919118 51.94682621 321.93846326 41.30175781 307.734375 C39.99248469 305.98998711 38.66495619 304.26062224 37.3359375 302.53125 C17.98799389 277.06864259 2.7550825 248.43196832 -7 218 C-7.48530811 216.57279115 -7.97100724 215.14571522 -8.45703125 213.71875 C-12.63947489 201.19532634 -16.29742772 188.11186686 -18.61279297 175.11279297 C-18.89281113 173.58487547 -19.19402962 172.06079227 -19.50830078 170.53955078 C-23.03226399 153.14788282 -23.40617515 135.93897438 -23.4375 118.25 C-23.44349213 117.13317841 -23.44948425 116.01635681 -23.45565796 114.86569214 C-23.528849 94.34228506 -21.78156708 74.18259869 -17.3125 54.125 C-17.06048828 52.97499512 -16.80847656 51.82499023 -16.54882812 50.64013672 C-14.6759555 42.37354772 -12.46510004 34.23383496 -10 26.125 C-9.69231689 25.11066895 -9.38463379 24.09633789 -9.06762695 23.05126953 C-6.53511097 15.04245831 -3.35091781 7.81880823 0 0 Z " fill="#2B2E35" transform="translate(99,250)"/>
<path d="M0 0 C23.21780775 -0.04515124 46.43557994 -0.08199176 69.65342045 -0.10362434 C80.43392064 -0.11393581 91.21439161 -0.12799369 101.99487305 -0.15087891 C111.39140942 -0.17081672 120.78792463 -0.18371738 130.18448156 -0.18817699 C135.15962083 -0.1907837 140.13469955 -0.19690797 145.10981941 -0.21146011 C149.79403141 -0.22505015 154.47815801 -0.22921974 159.16238785 -0.22621536 C160.88005093 -0.22676489 162.59771692 -0.23073385 164.31536293 -0.23841095 C166.66457488 -0.24839449 169.01346644 -0.24595653 171.36268616 -0.24050903 C172.67624116 -0.24235262 173.98979616 -0.24419621 175.34315586 -0.24609566 C179.23888159 0.01607608 182.30556521 0.79612949 186 2 C186 2.33 186 2.66 186 3 C184.41676312 3.027193 182.83338938 3.04648306 181.25 3.0625 C179.92742187 3.07990234 179.92742187 3.07990234 178.578125 3.09765625 C176 3 176 3 174.27466965 2.50378513 C171.16683297 1.81547335 168.21044864 1.85811814 165.02716064 1.84178162 C164.32545549 1.83684364 163.62375034 1.83190566 162.90078139 1.82681805 C160.55006756 1.81146291 158.19938099 1.80308782 155.84863281 1.79467773 C154.16333273 1.78509765 152.47803504 1.77508749 150.79273987 1.76467896 C146.21669172 1.73763796 141.64063327 1.71662401 137.06454945 1.69667697 C132.28257684 1.67481248 127.50063597 1.64742605 122.71868896 1.62062073 C113.6629767 1.57070013 104.60724681 1.52575894 95.55150008 1.48259836 C85.24202993 1.4332206 74.93259161 1.37830446 64.62315226 1.32291877 C43.41546308 1.20910842 22.20774463 1.10299845 1 1 C1 19.81 1 38.62 1 58 C56.11 58 111.22 58 168 58 C168 58.33 168 58.66 168 59 C112.56 59 57.12 59 0 59 C0 39.53 0 20.06 0 0 Z " fill="#DC3A29" transform="translate(334,250)"/>
<path d="M0 0 C1.26086514 3.94020358 1 6.47580299 1 11 C23.77 11 46.54 11 70 11 C70 11.66 70 12.32 70 13 C44.59 13 19.18 13 -7 13 C-5.58001139 9.45002848 -4.3878411 6.81270066 -2.375 3.6875 C-1.92898437 2.99011719 -1.48296875 2.29273438 -1.0234375 1.57421875 C-0.51683594 0.79498047 -0.51683594 0.79498047 0 0 Z " fill="#E44F3D" transform="translate(123,204)"/>
<path d="M0 0 C52.8 0 105.6 0 160 0 C160 0.33 160 0.66 160 1 C158.86278488 1.00634791 158.86278488 1.00634791 157.70259571 1.01282406 C139.2579119 1.1161149 120.81326666 1.22475035 102.36864948 1.33933926 C93.44898594 1.39462452 84.5293184 1.4480988 75.60961914 1.49731445 C67.83549484 1.54021383 60.06139944 1.58650632 52.28731984 1.63687855 C48.17077149 1.66343313 44.0542287 1.688285 39.93764687 1.70907402 C36.06271397 1.7286963 32.18783583 1.75285664 28.31295204 1.78049088 C26.89117429 1.78983175 25.46938454 1.79751759 24.04758835 1.80341911 C22.10500957 1.81173073 20.16246213 1.82659584 18.21992493 1.84178162 C16.58973403 1.85146044 16.58973403 1.85146044 14.92660999 1.8613348 C12.17885081 1.9915259 9.67523295 2.37896549 7 3 C6.67 3.99 6.34 4.98 6 6 C3.97945196 4.35830472 1.97956942 2.69088222 0 1 C0 0.67 0 0.34 0 0 Z " fill="#D43E2D" transform="translate(342,385)"/>
<path d="M0 0 C12.59928789 0.37784834 24.66242918 1.41052824 37 4 C38.09393066 4.22260498 38.09393066 4.22260498 39.20996094 4.44970703 C50.32384043 6.72311015 61.16379795 9.65312241 72 13 C71.67 13.66 71.34 14.32 71 15 C70.29875 14.79503906 69.5975 14.59007813 68.875 14.37890625 C63.23146391 12.77632603 57.84123457 11.55105987 52 11 C52 10.34 52 9.68 52 9 C50.85660156 8.86722656 49.71320313 8.73445313 48.53515625 8.59765625 C47.0442438 8.4194969 45.55335982 8.24109918 44.0625 8.0625 C43.30775391 7.97548828 42.55300781 7.88847656 41.77539062 7.79882812 C36.11328125 7.11328125 36.11328125 7.11328125 35 6 C33.17093765 5.79162581 31.33611866 5.63250341 29.5 5.5 C24.11111111 5.11111111 24.11111111 5.11111111 23 4 C20.83651698 3.81277551 18.66859941 3.67602711 16.5 3.5625 C10.78027733 3.19989999 5.54071498 2.43294353 0 1 C0 0.67 0 0.34 0 0 Z " fill="#E54937" transform="translate(406,62)"/>
<path d="M0 0 C0.89588837 0.00141495 1.79177673 0.0028299 2.71481323 0.00428772 C5.53647403 0.00982184 8.35805126 0.02236136 11.1796875 0.03515625 C13.10937384 0.04017979 15.03906145 0.04474119 16.96875 0.04882812 C21.664094 0.05976956 26.35937665 0.07698747 31.0546875 0.09765625 C31.0546875 0.42765625 31.0546875 0.75765625 31.0546875 1.09765625 C29.71059814 1.13524048 29.71059814 1.13524048 28.33935547 1.17358398 C24.94344535 1.26999163 21.54763562 1.36912451 18.15185547 1.4699707 C16.6955058 1.51269157 15.23912586 1.55439523 13.78271484 1.5949707 C-2.74356246 1.62538984 -2.74356246 1.62538984 -18.9453125 4.09765625 C-22.20391636 4.34966428 -25.45706562 4.53826398 -28.72070312 4.703125 C-32.12408417 4.60935897 -32.12408417 4.60935897 -34.9453125 6.09765625 C-36.96495449 6.17009678 -38.98698374 6.18142813 -41.0078125 6.16015625 C-42.11253906 6.15113281 -43.21726562 6.14210938 -44.35546875 6.1328125 C-45.63744141 6.11541016 -45.63744141 6.11541016 -46.9453125 6.09765625 C-46.9453125 5.76765625 -46.9453125 5.43765625 -46.9453125 5.09765625 C-42.65424381 4.44780908 -38.36235798 3.80351784 -34.0703125 3.16015625 C-32.86632812 2.97775391 -31.66234375 2.79535156 -30.421875 2.60742188 C-29.2359375 2.43017578 -28.05 2.25292969 -26.828125 2.0703125 C-25.74934082 1.90797119 -24.67055664 1.74562988 -23.55908203 1.57836914 C-15.67534976 0.52965486 -7.95400084 -0.04857108 0 0 Z " fill="#DE4D3E" transform="translate(370.9453125,60.90234375)"/>
<path d="M0 0 C0.33 0 0.66 0 1 0 C1.70511768 8.42363796 2.10554612 16.79647717 2.125 25.25 C2.12951172 26.07153564 2.13402344 26.89307129 2.13867188 27.73950195 C2.13031072 31.07664913 2.06241725 33.81274826 1 37 C0.74232692 40.24238627 0.55753192 43.47862321 0.39453125 46.7265625 C0.10159485 51.89840515 0.10159485 51.89840515 -1 53 C-1.3931648 54.67884238 -1.74085452 56.36850045 -2.0625 58.0625 C-2.23910156 58.98160156 -2.41570313 59.90070313 -2.59765625 60.84765625 C-2.73042969 61.55792969 -2.86320313 62.26820313 -3 63 C-3.33 63 -3.66 63 -4 63 C-3.87651745 61.58320026 -3.7510145 60.16657679 -3.625 58.75 C-3.53476562 57.72777344 -3.44453125 56.70554687 -3.3515625 55.65234375 C-3.10348603 53.07510489 -2.82961009 50.51145501 -2.5234375 47.94140625 C-0.68843832 32.00114921 -0.36738959 16.02774431 0 0 Z " fill="#E1412F" transform="translate(627,352)"/>
<path d="M0 0 C0 0.66 0 1.32 0 2 C-3.78610699 5.51567078 -7.32568722 7.76022512 -12 10 C-16.17612835 12.35807198 -16.17612835 12.35807198 -19 16 C-20.65840998 17.01363412 -22.3267066 18.01112844 -24 19 C-25.792171 20.3683291 -27.56321832 21.7647509 -29.3125 23.1875 C-30.19550781 23.90292969 -31.07851562 24.61835938 -31.98828125 25.35546875 C-32.65214844 25.89816406 -33.31601563 26.44085938 -34 27 C-34.66 26.67 -35.32 26.34 -36 26 C-27.01389413 18.16557043 -17.75418261 10.8581887 -8 4 C-7.43780762 3.60280762 -6.87561523 3.20561523 -6.29638672 2.79638672 C-2.24352786 0 -2.24352786 0 0 0 Z " fill="#E74836" transform="translate(216,111)"/>
<path d="M0 0 C1.32 0.33 2.64 0.66 4 1 C4 2.65 4 4.3 4 6 C4.66 6 5.32 6 6 6 C7.76462683 9.08809695 8 10.23312136 8 14 C8.66 14 9.32 14 10 14 C10.66 16.97 11.32 19.94 12 23 C12.66 23 13.32 23 14 23 C14.53341184 24.57914015 15.05125763 26.16354387 15.5625 27.75 C15.85253906 28.63171875 16.14257812 29.5134375 16.44140625 30.421875 C17.02820739 33.13018796 16.75639869 34.39972846 16 37 C15.59273682 36.01157104 15.59273682 36.01157104 15.17724609 35.00317383 C7.91805701 17.35689024 7.91805701 17.35689024 0 0 Z " fill="#E54533" transform="translate(597,251)"/>
<path d="M0 0 C0.66 0 1.32 0 2 0 C2.20496094 0.85464844 2.40992188 1.70929688 2.62109375 2.58984375 C2.89050781 3.69457031 3.15992188 4.79929687 3.4375 5.9375 C3.70433594 7.03964844 3.97117187 8.14179688 4.24609375 9.27734375 C4.72995725 11.89421254 4.72995725 11.89421254 6 13 C6.33333333 15.33333333 6.66666667 17.66666667 7 20 C7.33 20.33 7.66 20.66 8 21 C8.31923492 23.0572917 8.51161352 25.11613521 8.71875 27.1875 C8.81998043 29.0167533 8.81998043 29.0167533 10 30 C10.07226502 31.85287502 10.0838122 33.70833878 10.0625 35.5625 C10.05347656 36.57441406 10.04445313 37.58632813 10.03515625 38.62890625 C10.02355469 39.41136719 10.01195312 40.19382812 10 41 C9.67 41 9.34 41 9 41 C8.86948242 40.34628418 8.73896484 39.69256836 8.60449219 39.01904297 C5.2305271 22.1231461 5.2305271 22.1231461 0.69921875 5.51171875 C0 3 0 3 0 0 Z " fill="#E4402E" transform="translate(615,291)"/>
<path d="M0 0 C4.69165109 2.97519337 8.84703191 6.31393365 13 10 C10.29120665 11.35439668 7.99066732 11.06501451 5 11 C5 10.34 5 9.68 5 9 C4.01 9.33 3.02 9.66 2 10 C1.34 6.7 0.68 3.4 0 0 Z " fill="#F03821" transform="translate(543,483)"/>
<path d="M0 0 C-1.22976562 0.81404297 -1.22976562 0.81404297 -2.484375 1.64453125 C-4.10085937 2.71767578 -4.10085937 2.71767578 -5.75 3.8125 C-6.81734375 4.52019531 -7.8846875 5.22789063 -8.984375 5.95703125 C-10.78065128 7.17393863 -12.55283142 8.42987409 -14.265625 9.76171875 C-16 11 -16 11 -18 11 C-18 10.01 -18 9.02 -18 8 C-16.68 8 -15.36 8 -14 8 C-14 7.34 -14 6.68 -14 6 C-5.55828221 -1.85276074 -5.55828221 -1.85276074 0 0 Z " fill="#FEE6DF" transform="translate(223,106)"/>
<path d="M0 0 C0.93351354 2.99188688 1.09677206 3.75534387 -0.109375 6.8046875 C-0.65078125 7.81789063 -1.1921875 8.83109375 -1.75 9.875 C-2.28109375 10.88304687 -2.8121875 11.89109375 -3.359375 12.9296875 C-3.90078125 13.94289063 -4.4421875 14.95609375 -5 16 C-6.0055312 17.99722482 -7.00718343 19.99642438 -8 22 C-8.66 22 -9.32 22 -10 22 C-8.4719611 16.90117545 -6.28963144 12.34334341 -3.875 7.625 C-3.50246094 6.88894531 -3.12992188 6.15289062 -2.74609375 5.39453125 C-1.8343878 3.59449642 -0.91770068 1.79698598 0 0 Z " fill="#FEDAD4" transform="translate(663,495)"/>
<path d="M0 0 C3.43927579 1.2419607 6.25207819 2.55740284 9 5 C9 5.66 9 6.32 9 7 C9.598125 7.268125 10.19625 7.53625 10.8125 7.8125 C12.98726664 8.99308761 14.26816512 10.26816512 16 12 C16.99 12.33 17.98 12.66 19 13 C18.67 14.32 18.34 15.64 18 17 C17.53851562 16.5153125 17.07703125 16.030625 16.6015625 15.53125 C11.98569214 10.78766781 7.15131338 6.60289328 1.90625 2.56640625 C1.2771875 2.04949219 0.648125 1.53257812 0 1 C0 0.67 0 0.34 0 0 Z " fill="#E44637" transform="translate(538,180)"/>
<path d="M0 0 C-2.72907528 1.12373688 -5.44309051 2.14485651 -8.25 3.0625 C-10.88068876 3.73364914 -10.88068876 3.73364914 -12 5 C-13.84891946 5.23363881 -15.70488031 5.41303635 -17.5625 5.5625 C-19.08037109 5.68818359 -19.08037109 5.68818359 -20.62890625 5.81640625 C-21.41136719 5.87699219 -22.19382812 5.93757813 -23 6 C-19.52819555 3.6854637 -16.00204877 2.55044236 -12.0625 1.3125 C-11.34642578 1.07466797 -10.63035156 0.83683594 -9.89257812 0.59179688 C-6.16030285 -0.58772664 -3.73134196 -1.18041207 0 0 Z " fill="#E54D3B" transform="translate(306,72)"/>
<path d="M0 0 C2.31 0.33 4.62 0.66 7 1 C7.165 1.70125 7.33 2.4025 7.5 3.125 C9.68535165 7.31359067 13.14671162 9.39230949 17 12 C16.67 12.66 16.34 13.32 16 14 C14.26797907 12.60770997 12.53951516 11.21099444 10.8125 9.8125 C9.84957031 9.03519531 8.88664062 8.25789062 7.89453125 7.45703125 C5.09649579 5.08191073 2.5544533 2.62917223 0 0 Z " fill="#E64736" transform="translate(487,507)"/>
<path d="M0 0 C5.21568696 7.82353044 5.62619071 14.70632777 6 24 C3.82585124 20.23931026 2.89756093 16.18113804 1.875 12 C1.69324219 11.2884375 1.51148438 10.576875 1.32421875 9.84375 C0.47681609 6.42865356 0 3.54154278 0 0 Z " fill="#FDD9D1" transform="translate(678,278)"/>
<path d="M0 0 C2.68777802 -0.0544207 5.37443212 -0.09387266 8.0625 -0.125 C8.81466797 -0.14175781 9.56683594 -0.15851563 10.34179688 -0.17578125 C15.29327709 -0.21865121 19.30414451 0.41600625 24 2 C24 2.33 24 2.66 24 3 C15.83759432 3.33853295 8.04927976 2.29901921 0 1 C0 0.67 0 0.34 0 0 Z " fill="#E74231" transform="translate(496,250)"/>
<path d="M0 0 C0 0.66 0 1.32 0 2 C-0.99 2.33 -1.98 2.66 -3 3 C-3.45375 3.680625 -3.9075 4.36125 -4.375 5.0625 C-6 7 -6 7 -8.6875 7.25 C-9.450625 7.1675 -10.21375 7.085 -11 7 C-11.33 7.99 -11.66 8.98 -12 10 C-13.32 9.67 -14.64 9.34 -16 9 C-13.71180854 7.49445366 -11.41978831 5.99542957 -9.125 4.5 C-8.47402344 4.07074219 -7.82304687 3.64148438 -7.15234375 3.19921875 C-2.2265625 0 -2.2265625 0 0 0 Z " fill="#EA4736" transform="translate(232,101)"/>
<path d="M0 0 C-7.26168046 3.56911033 -13.9962001 6.64342375 -22 8 C-19.80202597 5.80202597 -18.82453855 5.54102483 -15.875 4.875 C-14.59625 4.58625 -13.3175 4.2975 -12 4 C-12 3.34 -12 2.68 -12 2 C-10.56656 1.46809459 -9.12804633 0.94984742 -7.6875 0.4375 C-6.48673828 0.00244141 -6.48673828 0.00244141 -5.26171875 -0.44140625 C-3 -1 -3 -1 0 0 Z " fill="#E54330" transform="translate(544,433)"/>
<path d="M0 0 C2.56364399 0.62057657 5.12584926 1.24629199 7.6875 1.875 C8.40873047 2.04902344 9.12996094 2.22304687 9.87304688 2.40234375 C13.72028845 3.35097866 17.35715569 4.40490841 21 6 C21 6.33 21 6.66 21 7 C15.85382627 7.3765493 12.66124508 6.08952366 8 4 C5.34805093 3.23098138 2.69398517 2.61441767 0 2 C0 1.34 0 0.68 0 0 Z " fill="#FEDAD2" transform="translate(443,132)"/>
<path d="M0 0 C1 3 1 3 0.0625 5.1875 C-0.288125 5.785625 -0.63875 6.38375 -1 7 C-1.66 7 -2.32 7 -3 7 C-3.33 7.66 -3.66 8.32 -4 9 C-7 7.1875 -7 7.1875 -10 5 C-10 4.01 -10 3.02 -10 2 C-8.35 2.99 -6.7 3.98 -5 5 C-3.35 3.35 -1.7 1.7 0 0 Z " fill="#FDEEE5" transform="translate(597,589)"/>
<path d="M0 0 C4.69159716 3.38772897 9.0299782 6.78185183 13 11 C9.64566891 10.05066101 6.30753495 9.10251165 3 8 C3.33 6.68 3.66 5.36 4 4 C3.34 4 2.68 4 2 4 C1.67 4.66 1.34 5.32 1 6 C0.67 4.02 0.34 2.04 0 0 Z " fill="#E93D2A" transform="translate(507,453)"/>
<path d="M0 0 C3.42145937 2.24164579 4.91943579 4.53239298 7 8 C9.06954847 9.78344178 9.06954847 9.78344178 11 11 C10.67 11.66 10.34 12.32 10 13 C5.71 9.37 1.42 5.74 -3 2 C-2.01 1.34 -1.02 0.68 0 0 Z " fill="#E74437" transform="translate(432,457)"/>
<path d="M0 0 C1.92536938 1.60558484 2.91074167 2.47769478 3.34057617 4.99291992 C3.3170105 6.10050659 3.3170105 6.10050659 3.29296875 7.23046875 C3.28330078 8.03291016 3.27363281 8.83535156 3.26367188 9.66210938 C3.23853516 10.49548828 3.21339844 11.32886719 3.1875 12.1875 C3.16719727 13.4549707 3.16719727 13.4549707 3.14648438 14.74804688 C3.11115799 16.83230384 3.05735139 18.91623277 3 21 C2.67 21 2.34 21 2 21 C1.66280953 18.43795456 1.33012847 15.87545682 1 13.3125 C0.90460937 12.59126953 0.80921875 11.87003906 0.7109375 11.12695312 C0.23316265 7.39007129 -0.11919794 3.77708469 0 0 Z " fill="#FDD9D2" transform="translate(688,328)"/>
<path d="M0 0 C0.33 0 0.66 0 1 0 C0.50877547 8.13105861 -0.35266241 16.01920915 -2 24 C-2.33 24 -2.66 24 -3 24 C-2.88545196 21.12424132 -2.7587153 18.24987888 -2.625 15.375 C-2.5940625 14.56675781 -2.563125 13.75851562 -2.53125 12.92578125 C-2.3047054 8.28161686 -1.7407332 4.37306144 0 0 Z " fill="#E24633" transform="translate(687,406)"/>
<path d="M0 0 C0 0.99 0 1.98 0 3 C-4.98229776 4.91626837 -9.72684667 5.5547115 -15 6 C-12.61874536 3.61874536 -10.66142433 2.99813759 -7.5 1.875 C-6.5203125 1.52179688 -5.540625 1.16859375 -4.53125 0.8046875 C-2 0 -2 0 0 0 Z " fill="#EA4938" transform="translate(277,80)"/>
<path d="M0 0 C2.97 0.495 2.97 0.495 6 1 C6 2.98 6 4.96 6 7 C6.66 7 7.32 7 8 7 C8.33 9.31 8.66 11.62 9 14 C6.69534766 11.03786426 4.72409552 7.97847243 2.8125 4.75 C2.28269531 3.85796875 1.75289062 2.9659375 1.20703125 2.046875 C0.60955078 1.03367187 0.60955078 1.03367187 0 0 Z " fill="#E74030" transform="translate(525,321)"/>
<path d="M0 0 C1 2 1 2 0.25 5 C-1 8 -1 8 -4 10 C-5.20482939 11.7179646 -5.20482939 11.7179646 -6.1875 13.625 C-7.0846875 15.295625 -7.0846875 15.295625 -8 17 C-8.66 16.67 -9.32 16.34 -10 16 C-8.70902308 13.89540739 -7.41724641 11.79131292 -6.125 9.6875 C-5.76019531 9.09259766 -5.39539063 8.49769531 -5.01953125 7.88476562 C-3.38588461 5.22637701 -1.73104176 2.59656263 0 0 Z " fill="#E64C3A" transform="translate(596,487)"/>
<path d="M0 0 C1.51400391 0.01740234 1.51400391 0.01740234 3.05859375 0.03515625 C4.07050781 0.04417969 5.08242188 0.05320312 6.125 0.0625 C7.29869141 0.07990234 7.29869141 0.07990234 8.49609375 0.09765625 C1.46736047 3.76093673 -5.74991197 3.2105785 -13.50390625 3.09765625 C-13.50390625 2.76765625 -13.50390625 2.43765625 -13.50390625 2.09765625 C-12.79363281 2.03707031 -12.08335937 1.97648437 -11.3515625 1.9140625 C-9.97291016 1.78837891 -9.97291016 1.78837891 -8.56640625 1.66015625 C-7.64988281 1.57894531 -6.73335938 1.49773437 -5.7890625 1.4140625 C-3.03556738 1.03280933 -2.84964025 0.11114042 0 0 Z " fill="#E54A39" transform="translate(513.50390625,440.90234375)"/>
<path d="M0 0 C1 3 1 3 0.14453125 4.7890625 C-0.51482422 5.69785156 -0.51482422 5.69785156 -1.1875 6.625 C-1.61417969 7.23601562 -2.04085937 7.84703125 -2.48046875 8.4765625 C-4.26692012 10.26760629 -5.53471865 10.60935585 -8 11 C-6.63629701 8.00779732 -5.05091917 5.70973471 -2.875 3.25 C-2.33617187 2.63640625 -1.79734375 2.0228125 -1.2421875 1.390625 C-0.62730469 0.70226562 -0.62730469 0.70226562 0 0 Z " fill="#EB4838" transform="translate(148,170)"/>
<path d="M0 0 C2 2 2 2 3 5 C4.62948064 6.22445284 4.62948064 6.22445284 6.5625 7.1875 C7.696875 7.785625 8.83125 8.38375 10 9 C9.01 9.495 9.01 9.495 8 10 C5.71741367 8.92325298 3.5643566 7.80453884 1.375 6.5625 C0.76398438 6.22412109 0.15296875 5.88574219 -0.4765625 5.53710938 C-1.988353 4.69853808 -3.49470399 3.85017423 -5 3 C-4.360625 2.690625 -3.72125 2.38125 -3.0625 2.0625 C-1.06389179 1.1654837 -1.06389179 1.1654837 0 0 Z " fill="#E83F2D" transform="translate(494,146)"/>
<path d="M0 0 C0.66 0.99 1.32 1.98 2 3 C0.45294267 6.09411467 -1.88071772 6.71558965 -5 8 C-7.19921875 7.58203125 -7.19921875 7.58203125 -9 7 C-8.43410156 6.57847656 -7.86820313 6.15695312 -7.28515625 5.72265625 C-6.55167969 5.17480469 -5.81820312 4.62695312 -5.0625 4.0625 C-4.33160156 3.51722656 -3.60070312 2.97195313 -2.84765625 2.41015625 C-1.0865547 1.13092062 -1.0865547 1.13092062 0 0 Z " fill="#EE4431" transform="translate(524,373)"/>
<path d="M0 0 C3.375 0.75 3.375 0.75 7 2 C8.125 3.875 8.125 3.875 9 6 C11.53442406 8.22816986 11.53442406 8.22816986 14 10 C13.67 10.66 13.34 11.32 13 12 C10.83035229 10.19096681 8.66421535 8.37801121 6.5 6.5625 C5.87996094 6.04623047 5.25992188 5.52996094 4.62109375 4.99804688 C3.06197284 3.68735732 1.52871719 2.34602708 0 1 C0 0.67 0 0.34 0 0 Z " fill="#E44A3C" transform="translate(524,538)"/>
<path d="M0 0 C1.81612488 0.95144598 3.62781081 1.91136933 5.4375 2.875 C6.44683594 3.40867187 7.45617187 3.94234375 8.49609375 4.4921875 C11 6 11 6 12 8 C8.28400809 8.20086443 7.22791555 8.1519437 4 6 C4 5.34 4 4.68 4 4 C3.01 4 2.02 4 1 4 C0.67 2.68 0.34 1.36 0 0 Z " fill="#E94030" transform="translate(540,259)"/>
<path d="M0 0 C6.86036401 0.65965039 13.34443923 2.2362764 20 4 C12.94011228 6.10362343 6.41992002 4.14166299 0 1 C0 0.67 0 0.34 0 0 Z " fill="#E55642" transform="translate(435,65)"/>
<path d="M0 0 C1.29608947 0.93137592 2.58671632 1.8703566 3.875 2.8125 C4.59429687 3.33457031 5.31359375 3.85664063 6.0546875 4.39453125 C8 6 8 6 10 9 C9.01 9 8.02 9 7 9 C7 8.34 7 7.68 7 7 C5.02 7 3.04 7 1 7 C0.67 4.69 0.34 2.38 0 0 Z " fill="#FDE3DA" transform="translate(395,430)"/>
<path d="M0 0 C1.65 0.33 3.3 0.66 5 1 C2.69716746 3.54131358 0.32686207 5.07110295 -2.6875 6.6875 C-3.89986328 7.34298828 -3.89986328 7.34298828 -5.13671875 8.01171875 C-5.75160156 8.33785156 -6.36648437 8.66398438 -7 9 C-6.67 7.68 -6.34 6.36 -6 5 C-4.68 5 -3.36 5 -2 5 C-1.34 3.35 -0.68 1.7 0 0 Z " fill="#E84231" transform="translate(259,154)"/>
<path d="M0 0 C0.33 0.99 0.66 1.98 1 3 C-0.36125 3.86625 -0.36125 3.86625 -1.75 4.75 C-4.52022946 6.66785116 -6.71945499 8.54402845 -9 11 C-9.66 10.67 -10.32 10.34 -11 10 C-9.54474941 8.51780033 -8.085701 7.03932861 -6.625 5.5625 C-5.81289062 4.73878906 -5.00078125 3.91507813 -4.1640625 3.06640625 C-2 1 -2 1 0 0 Z " fill="#FEE2D9" transform="translate(227,181)"/>
<path d="M0 0 C0.33 1.32 0.66 2.64 1 4 C-3.625 8 -3.625 8 -7 8 C-4.69 5.36 -2.38 2.72 0 0 Z " fill="#EE4736" transform="translate(164,152)"/>
<path d="M0 0 C1.65 0.33 3.3 0.66 5 1 C5 1.66 5 2.32 5 3 C1.53846154 6 1.53846154 6 -1 6 C-1.33 5.01 -1.66 4.02 -2 3 C-1.34 2.01 -0.68 1.02 0 0 Z " fill="#33363C" transform="translate(556,617)"/>
<path d="M0 0 C2.91517292 1.07401108 4.77810176 1.77810176 7 4 C9.06874034 4.6425235 9.06874034 4.6425235 11 5 C11.33 6.65 11.66 8.3 12 10 C3.55353075 3.84965831 3.55353075 3.84965831 0 0 Z " fill="#E54535" transform="translate(506,523)"/>
<path d="M0 0 C0.33 0 0.66 0 1 0 C1.375 2.1875 1.375 2.1875 1 5 C-0.83961648 6.99022836 -2.79186148 8.38989899 -5 10 C-5.66 9.67 -6.32 9.34 -7 9 C-5.85793642 7.49712782 -4.71125043 5.99776716 -3.5625 4.5 C-2.92441406 3.6646875 -2.28632813 2.829375 -1.62890625 1.96875 C-0.82259766 0.99421875 -0.82259766 0.99421875 0 0 Z " fill="#E94029" transform="translate(139,181)"/>
<path d="M0 0 C-1.25842768 3.77528304 -2.62493429 4.10667045 -6 6 C-6.66 6.66 -7.32 7.32 -8 8 C-10.125 7.625 -10.125 7.625 -12 7 C-10.3790787 5.82767315 -8.75313167 4.6622923 -7.125 3.5 C-6.22007812 2.8503125 -5.31515625 2.200625 -4.3828125 1.53125 C-2 0 -2 0 0 0 Z " fill="#FEE4DF" transform="translate(253,163)"/>
<path d="M0 0 C4.50802601 1.25805377 7.4912812 2.90407165 11 6 C9.02 6 7.04 6 5 6 C4.34 4.68 3.68 3.36 3 2 C2.01 2 1.02 2 0 2 C0 1.34 0 0.68 0 0 Z " fill="#EA3E2C" transform="translate(523,95)"/>
<path d="M0 0 C2.64 1.98 5.28 3.96 8 6 C7.01 6.66 6.02 7.32 5 8 C5 7.34 5 6.68 5 6 C4.01 6.33 3.02 6.66 2 7 C0 4 0 4 0 0 Z " fill="#EE3B26" transform="translate(529,471)"/>
<path d="M0 0 C1.37095624 3.69037278 0.60010967 5.70883835 -0.9375 9.25 C-1.31777344 10.14203125 -1.69804688 11.0340625 -2.08984375 11.953125 C-2.39019531 12.62859375 -2.69054687 13.3040625 -3 14 C-3.66 14 -4.32 14 -5 14 C-3.70022952 9.1008651 -2.07626313 4.62440425 0 0 Z " fill="#FEE0DA" transform="translate(669,481)"/>
<path d="M0 0 C0.66 0 1.32 0 2 0 C3.33333333 1.33333333 4.66666667 2.66666667 6 4 C5.67 4.99 5.34 5.98 5 7 C5.66 7 6.32 7 7 7 C6.67 8.32 6.34 9.64 6 11 C4.02 7.37 2.04 3.74 0 0 Z " fill="#E74433" transform="translate(590,239)"/>
<path d="M0 0 C2.97069541 2.54631035 4.4775751 5.42230149 6 9 C5.67 9.66 5.34 10.32 5 11 C0.07692308 6.81538462 0.07692308 6.81538462 -0.3125 2.6875 C-0.209375 1.800625 -0.10625 0.91375 0 0 Z " fill="#E64835" transform="translate(653,222)"/>
<path d="M0 0 C-3.52679099 2.35119399 -5.02879485 2.21443452 -9.1875 2.125 C-10.27417969 2.10695313 -11.36085938 2.08890625 -12.48046875 2.0703125 C-13.72763672 2.03550781 -13.72763672 2.03550781 -15 2 C-15 1.67 -15 1.34 -15 1 C-13.25215171 0.63536268 -11.50159498 0.2836922 -9.75 -0.0625 C-8.28820312 -0.35833984 -8.28820312 -0.35833984 -6.796875 -0.66015625 C-4.131881 -0.98397535 -2.51128277 -0.85503199 0 0 Z " fill="#E84B3A" transform="translate(339,65)"/>
<path d="M0 0 C0.598125 0.309375 1.19625 0.61875 1.8125 0.9375 C4.7850784 2.38132379 7.80134201 3.22791014 11 4 C9.68 4.99 8.36 5.98 7 7 C5.83040013 6.02433888 4.66438823 5.044375 3.5 4.0625 C2.8503125 3.51722656 2.200625 2.97195313 1.53125 2.41015625 C1.0259375 1.94480469 0.520625 1.47945312 0 1 C0 0.67 0 0.34 0 0 Z " fill="#E24C3D" transform="translate(584,588)"/>
<path d="M0 0 C0.33 1.32 0.66 2.64 1 4 C-0.65 5.32 -2.3 6.64 -4 8 C-4.66 7.67 -5.32 7.34 -6 7 C-5.34 6.01 -4.68 5.02 -4 4 C-3.34 4 -2.68 4 -2 4 C-1.34 2.68 -0.68 1.36 0 0 Z " fill="#FCDCD7" transform="translate(214,192)"/>
<path d="M0 0 C-0.33 0.66 -0.66 1.32 -1 2 C-2.32 2 -3.64 2 -5 2 C-5 2.66 -5 3.32 -5 4 C-6.98 4 -8.96 4 -11 4 C-3.77464789 -1.88732394 -3.77464789 -1.88732394 0 0 Z " fill="#FFE0DC" transform="translate(289,145)"/>
<path d="M0 0 C0 1.65 0 3.3 0 5 C-3.3 5 -6.6 5 -10 5 C-3.33333333 0 -3.33333333 0 0 0 Z " fill="#EC4534" transform="translate(255,89)"/>
<path d="M0 0 C0.66 0.33 1.32 0.66 2 1 C-0.475 5.455 -0.475 5.455 -3 10 C-3.33 8.68 -3.66 7.36 -4 6 C-3.34 6 -2.68 6 -2 6 C-2 4.35 -2 2.7 -2 1 C-1.34 0.67 -0.68 0.34 0 0 Z " fill="#EA3F2F" transform="translate(653,512)"/>
<path d="M0 0 C3.33864404 0.57562828 4.69102632 1.59063616 7 4 C7.99 4.33 8.98 4.66 10 5 C9.67 5.99 9.34 6.98 9 8 C7.68388323 7.04663979 6.37221039 6.08714226 5.0625 5.125 C4.33160156 4.59132813 3.60070312 4.05765625 2.84765625 3.5078125 C1 2 1 2 0 0 Z " fill="#FFDED4" transform="translate(571,505)"/>
<path d="M0 0 C0.99 0.33 1.98 0.66 3 1 C1.60667426 4.36720387 0.0210714 5.9859524 -3 8 C-3.33 7.01 -3.66 6.02 -4 5 C-3.01 5 -2.02 5 -1 5 C-0.67 3.35 -0.34 1.7 0 0 Z " fill="#ED4C3B" transform="translate(206,196)"/>
<path d="M0 0 C1.31611677 0.95336021 2.62778961 1.91285774 3.9375 2.875 C4.66839844 3.40867187 5.39929688 3.94234375 6.15234375 4.4921875 C8 6 8 6 9 8 C8.01 8 7.02 8 6 8 C6 7.34 6 6.68 6 6 C4.35 5.67 2.7 5.34 1 5 C0.67 3.35 0.34 1.7 0 0 Z " fill="#E4422F" transform="translate(570,505)"/>
<path d="M0 0 C2.97 0 5.94 0 9 0 C9 0.33 9 0.66 9 1 C7.35 1.33 5.7 1.66 4 2 C3.67 2.99 3.34 3.98 3 5 C2.01 4.34 1.02 3.68 0 3 C0 2.01 0 1.02 0 0 Z " fill="#EB3F2A" transform="translate(345,386)"/>
<path d="M0 0 C0.66 0 1.32 0 2 0 C2.33 1.32 2.66 2.64 3 4 C0.525 5.485 0.525 5.485 -2 7 C-1.125 2.25 -1.125 2.25 0 0 Z " fill="#34373C" transform="translate(99,250)"/>
<path d="M0 0 C1.77007714 -0.08114106 3.54122098 -0.13925505 5.3125 -0.1875 C6.29863281 -0.22230469 7.28476562 -0.25710937 8.30078125 -0.29296875 C11 0 11 0 12.85546875 1.51171875 C13.23316406 2.00285156 13.61085938 2.49398437 14 3 C9.33333333 2.33333333 4.66666667 1.66666667 0 1 C0 0.67 0 0.34 0 0 Z " fill="#FDE3D7" transform="translate(506,249)"/>
<path d="M0 0 C0.78375 0.04125 1.5675 0.0825 2.375 0.125 C-2.25 5 -2.25 5 -5.625 6.125 C-4.86443086 2.32215429 -4.27658992 0.20364714 0 0 Z " fill="#EB4438" transform="translate(238.625,169.875)"/>
<path d="M0 0 C0.33 1.32 0.66 2.64 1 4 C-1.35953094 6.35953094 -2.77895617 6.49141413 -6 7 C-4.02 4.69 -2.04 2.38 0 0 Z " fill="#E9412F" transform="translate(156,161)"/>
<path d="M0 0 C3.63 0 7.26 0 11 0 C11 0.33 11 0.66 11 1 C7.04 1.66 3.08 2.32 -1 3 C-0.67 2.01 -0.34 1.02 0 0 Z " fill="#FEE1D6" transform="translate(309,67)"/>
<path d="M0 0 C0.99 0.33 1.98 0.66 3 1 C-0.465 3.97 -0.465 3.97 -4 7 C-4 5.68 -4 4.36 -4 3 C-3.34 3 -2.68 3 -2 3 C-1.67 2.34 -1.34 1.68 -1 1 C-0.67 0.67 -0.34 0.34 0 0 Z " fill="#EA3D27" transform="translate(599,584)"/>
<path d="M0 0 C4.24480464 -0.33292585 6.35542625 -0.43885872 9.9375 2 C10.618125 2.66 11.29875 3.32 12 4 C7.80530429 3.40075776 3.99000166 2.42500059 0 1 C0 0.67 0 0.34 0 0 Z " fill="#E3503D" transform="translate(461,137)"/>
<path d="M0 0 C1.65 1.32 3.3 2.64 5 4 C4.67 4.99 4.34 5.98 4 7 C3.34 6.67 2.68 6.34 2 6 C2 5.34 2 4.68 2 4 C1.01 4.33 0.02 4.66 -1 5 C-0.67 3.35 -0.34 1.7 0 0 Z " fill="#3F4044" transform="translate(560,611)"/>
<path d="M0 0 C0.66 0.99 1.32 1.98 2 3 C1.01 3.33 0.02 3.66 -1 4 C-1.73323796 6.01508358 -1.73323796 6.01508358 -2 8 C-2.66 8 -3.32 8 -4 8 C-2.87548273 5.0280615 -1.77706209 2.66559313 0 0 Z M2 1 C4 2 4 2 4 2 Z " fill="#FDE3DC" transform="translate(647,526)"/>
<path d="M0 0 C2.97 1.98 2.97 1.98 6 4 C3.3260876 4.89130413 0.76276177 5.47731534 -2 6 C-1.34 4.02 -0.68 2.04 0 0 Z " fill="#ED3A29" transform="translate(520,464)"/>
<path d="M0 0 C2.64 0 5.28 0 8 0 C8 0.66 8 1.32 8 2 C8.99 2.33 9.98 2.66 11 3 C9 4 9 4 6.8359375 3.44140625 C6.02382813 3.15136719 5.21171875 2.86132812 4.375 2.5625 C3.55773437 2.27503906 2.74046875 1.98757813 1.8984375 1.69140625 C1.27195312 1.46324219 0.64546875 1.23507812 0 1 C0 0.67 0 0.34 0 0 Z " fill="#E23F2C" transform="translate(504,309)"/>
<path d="M0 0 C0 0.66 0 1.32 0 2 C-4.15267176 5.11450382 -4.15267176 5.11450382 -7.3125 4.6875 C-7.869375 4.460625 -8.42625 4.23375 -9 4 C-2.25 0 -2.25 0 0 0 Z " fill="#E84C3D" transform="translate(245,94)"/>
<path d="M0 0 C0.99 0.33 1.98 0.66 3 1 C1.35 2.98 -0.3 4.96 -2 7 C-2.33 6.01 -2.66 5.02 -3 4 C-2.67 3.34 -2.34 2.68 -2 2 C-1.34 2 -0.68 2 0 2 C0 1.34 0 0.68 0 0 Z " fill="#E83E30" transform="translate(626,553)"/>
<path d="M0 0 C0.33 0.99 0.66 1.98 1 3 C-0.65 4.32 -2.3 5.64 -4 7 C-4.66 6.67 -5.32 6.34 -6 6 C-4.02 4.02 -2.04 2.04 0 0 Z " fill="#FFEAE3" transform="translate(206,201)"/>
</svg>
